# xmcd
#
# Track frame offsets:
#	150
#	26212
#	57482
#	79875
#	98565
#	122502
#	143157
#	164760
#
# Disc length: 2560 seconds
#
# Revision: 3
# Processed by: cddbd v1.5.1PL0 Copyright (c) Steve Scherf et al.
# Submitted via: audiograbber 1.83.01
#
DISCID=6b09fe08
DTITLE=John Mayall - Blues Power [CD2]
DYEAR=1999
DGENRE=Blues
TTITLE0=Ridin' on The L&N
TTITLE1=Help Me
TTITLE2=All Your Love
TTITLE3=I Ain't Got You
TTITLE4=One Life to Live
TTITLE5=The Last Time
TTITLE6=Fascinatin' Lover
TTITLE7=Life In The Jungle
EXTD=
EXTT0=
EXTT1=
EXTT2=
EXTT3=
EXTT4=
EXTT5=
EXTT6=
EXTT7=
PLAYORDER=
